<?xml version="1.0" encoding="UTF-8"?>
<svg version="1.1" xmlns="http://www.w3.org/2000/svg" width="512" height="512">
<path d="M0 0 C1.01790619 0.00215515 2.03581238 0.0043103 3.08456421 0.00653076 C17.69363523 0.05620146 32.02575853 0.30709809 46.375 3.3125 C47.34985352 3.51117676 48.32470703 3.70985352 49.32910156 3.91455078 C97.7109774 14.03517194 141.69928269 35.9516877 177.375 70.3125 C178.3640332 71.26068604 178.3640332 71.26068604 179.37304688 72.22802734 C188.86130305 81.37247479 197.6012044 90.66984009 205.375 101.3125 C206.23306152 102.46355017 207.09113451 103.61459177 207.94921875 104.765625 C213.98736829 112.95680614 219.34595521 121.47054105 224.375 130.3125 C224.73948242 130.94430176 225.10396484 131.57610352 225.47949219 132.22705078 C247.08534998 169.97532572 256.85198095 212.74189997 256.6875 255.9375 C256.68534485 256.95540619 256.6831897 257.97331238 256.68096924 259.02206421 C256.63129854 273.63113523 256.38040191 287.96325853 253.375 302.3125 C253.07698486 303.77478027 253.07698486 303.77478027 252.77294922 305.26660156 C242.65232806 353.6484774 220.7358123 397.63678269 186.375 433.3125 C185.74287598 433.97185547 185.11075195 434.63121094 184.45947266 435.31054688 C175.31502521 444.79880305 166.01765991 453.5387044 155.375 461.3125 C154.22394983 462.17056152 153.07290823 463.02863451 151.921875 463.88671875 C143.73224019 469.92427396 135.22961724 475.30707302 126.375 480.3125 C125.66778809 480.7146875 124.96057617 481.116875 124.23193359 481.53125 C101.09654164 494.5566741 75.92537591 503.30551461 49.9375 508.625 C49.21860596 508.77235596 48.49971191 508.91971191 47.7590332 509.0715332 C33.08339502 511.86090125 18.55831162 512.66142619 3.64770508 512.62817383 C0.70811513 512.6250221 -2.2304558 512.64854926 -5.16992188 512.67382812 C-18.54306192 512.71848737 -31.43916711 511.51301542 -44.625 509.3125 C-46.33055054 509.03031616 -46.33055054 509.03031616 -48.07055664 508.74243164 C-91.33802759 500.97044532 -132.38793216 480.98345309 -165.625 452.3125 C-166.37007813 451.67828125 -167.11515625 451.0440625 -167.8828125 450.390625 C-181.38779833 438.57948485 -194.05918743 425.82889772 -204.625 411.3125 C-205.48149066 410.16255169 -206.33826433 409.01281411 -207.1953125 407.86328125 C-213.23534209 399.67315742 -218.61867614 391.16870382 -223.625 382.3125 C-224.0271875 381.60528809 -224.429375 380.89807617 -224.84375 380.16943359 C-237.8691741 357.03404164 -246.61801461 331.86287591 -251.9375 305.875 C-252.08485596 305.15610596 -252.23221191 304.43721191 -252.3840332 303.6965332 C-255.35789088 288.05024391 -255.99800362 272.57681954 -255.9375 256.6875 C-255.93534485 255.66959381 -255.9331897 254.65168762 -255.93096924 253.60293579 C-255.88129854 238.99386477 -255.63040191 224.66174147 -252.625 210.3125 C-252.42632324 209.33764648 -252.22764648 208.36279297 -252.02294922 207.35839844 C-241.90232806 158.9765226 -219.9858123 114.98821731 -185.625 79.3125 C-184.99287598 78.65314453 -184.36075195 77.99378906 -183.70947266 77.31445312 C-174.56502521 67.82619695 -165.26765991 59.0862956 -154.625 51.3125 C-153.47394983 50.45443848 -152.32290823 49.59636549 -151.171875 48.73828125 C-142.98224019 42.70072604 -134.47961724 37.31792698 -125.625 32.3125 C-124.91778809 31.9103125 -124.21057617 31.508125 -123.48193359 31.09375 C-100.34654164 18.0683259 -75.17537591 9.31948539 -49.1875 4 C-48.46860596 3.85264404 -47.74971191 3.70528809 -47.0090332 3.5534668 C-31.36274391 0.57960912 -15.88931954 -0.06050362 0 0 Z " fill="#FF4141" transform="translate(255.625,-0.3125)"/>
<path d="M0 0 C1.14146145 3.42438436 0.85054068 4.19212876 -0.2578125 7.5078125 C-0.55107422 8.40298584 -0.84433594 9.29815918 -1.14648438 10.22045898 C-1.63084961 11.65820679 -1.63084961 11.65820679 -2.125 13.125 C-2.78532898 15.13883993 -3.44417114 17.15316796 -4.1015625 19.16796875 C-4.42801758 20.1636084 -4.75447266 21.15924805 -5.09082031 22.18505859 C-6.2961267 25.9168477 -7.41275864 29.66990989 -8.5 33.4375 C-10.42632076 40.0790179 -12.4177644 46.69878098 -14.4375 53.3125 C-16.62406954 60.47335365 -18.79530058 67.63824932 -20.9375 74.8125 C-23.26939108 82.61761611 -25.65932597 90.40406054 -28.0625 98.1875 C-32.09012743 111.24703468 -35.99837703 124.32852764 -39.64453125 137.5 C-39.87257446 138.32242188 -40.10061768 139.14484375 -40.33557129 139.9921875 C-40.89076927 141.99468402 -41.44544027 143.99732663 -42 146 C-41.2175592 145.97494385 -40.43511841 145.9498877 -39.62896729 145.92407227 C-32.15949137 145.68544729 -24.68992615 145.44993631 -17.22024918 145.21769714 C-13.38245558 145.09827273 -9.54470368 144.97775346 -5.70703125 144.85449219 C10.86384567 144.3230196 27.41787423 143.81615136 44 144 C41.78866357 147.3531977 39.56644317 150.66362387 37.1171875 153.84765625 C36.59511719 154.52828125 36.07304687 155.20890625 35.53515625 155.91015625 C34.98730469 156.62042969 34.43945312 157.33070313 33.875 158.0625 C33.29878906 158.81273437 32.72257813 159.56296875 32.12890625 160.3359375 C30.42111455 162.55871739 28.71085777 164.77957961 27 167 C26.12748395 168.1340221 25.25507629 169.2681276 24.3828125 170.40234375 C22.78696169 172.4769498 21.19060284 174.55116514 19.59375 176.625 C15.98941854 181.3106309 12.40206711 186.00926998 8.81420898 190.70751953 C6.36512053 193.91324572 3.91402397 197.11706054 1.44140625 200.3046875 C-5.24848825 208.93893557 -11.72492635 217.7218381 -18.18554688 226.52832031 C-21.11805746 230.52303737 -24.05936661 234.51126088 -27 238.5 C-28.16671111 240.08330059 -29.33337772 241.66663396 -30.5 243.25 C-37.5 252.75 -37.5 252.75 -39.25024414 255.12524414 C-40.41620806 256.70768185 -41.58206104 258.29020131 -42.74780273 259.87280273 C-45.67431443 263.84551887 -48.60277534 267.81676994 -51.53515625 271.78515625 C-57.77253218 280.23045286 -63.96685345 288.70377114 -70.10131836 297.22412109 C-75.77821238 305.09927242 -81.54696794 312.90594628 -87.31445312 320.71484375 C-90.00843261 324.3671682 -92.69229016 328.02689346 -95.375 331.6875 C-95.84566895 332.32969482 -96.31633789 332.97188965 -96.80126953 333.63354492 C-97.86770038 335.08889268 -98.93388223 336.54442288 -100 338 C-101.31553419 334.05339743 -100.38730616 332.25443839 -99.15625 328.296875 C-98.95196884 327.63140152 -98.74768768 326.96592804 -98.53721619 326.2802887 C-97.86621145 324.10093968 -97.18310229 321.92558421 -96.5 319.75 C-96.03176395 318.2361899 -95.56440327 316.72210877 -95.09790039 315.20776367 C-94.16602445 312.1864912 -93.22985304 309.16660967 -92.28955078 306.14794922 C-90.6484968 300.87665314 -89.04072216 295.59540677 -87.4375 290.3125 C-87.16615234 289.42208008 -86.89480469 288.53166016 -86.61523438 287.61425781 C-84.02348329 279.10497716 -81.47172946 270.58373469 -78.91973877 262.06246948 C-76.40326532 253.66070381 -73.8714556 245.26392402 -71.3125 236.875 C-66.76115475 221.94924567 -62.22781656 207.02118354 -58 192 C-58.54132568 192.06566162 -59.08265137 192.13132324 -59.64038086 192.19897461 C-67.59928051 193.08546757 -75.56354961 193.34474962 -83.5625 193.5625 C-84.3001358 193.58367889 -85.03777161 193.60485779 -85.79776001 193.62667847 C-105.1954026 194.17303631 -124.59671809 194.09597545 -144 194 C-141.78866357 190.6468023 -139.56644317 187.33637613 -137.1171875 184.15234375 C-136.59511719 183.47171875 -136.07304687 182.79109375 -135.53515625 182.08984375 C-134.98730469 181.37957031 -134.43945312 180.66929687 -133.875 179.9375 C-133.29878906 179.18726563 -132.72257813 178.43703125 -132.12890625 177.6640625 C-130.42111455 175.44128261 -128.71085777 173.22042039 -127 171 C-126.12748395 169.8659779 -125.25507629 168.7318724 -124.3828125 167.59765625 C-122.78696169 165.5230502 -121.19060284 163.44883486 -119.59375 161.375 C-115.98941854 156.6893691 -112.40206711 151.99073002 -108.81420898 147.29248047 C-106.36512053 144.08675428 -103.91402397 140.88293946 -101.44140625 137.6953125 C-94.75151175 129.06106443 -88.27507365 120.2781619 -81.81445312 111.47167969 C-78.88194254 107.47696263 -75.94063339 103.48873912 -73 99.5 C-71.83328889 97.91669941 -70.66662228 96.33336604 -69.5 94.75 C-62.5 85.25 -62.5 85.25 -60.74975586 82.87475586 C-59.58379194 81.29231815 -58.41793896 79.70979869 -57.25219727 78.12719727 C-54.32568557 74.15448113 -51.39722466 70.18323006 -48.46484375 66.21484375 C-42.22746782 57.76954714 -36.03314655 49.29622886 -29.89868164 40.77587891 C-24.22178762 32.90072758 -18.45303206 25.09405372 -12.68554688 17.28515625 C-9.99156739 13.6328318 -7.30770984 9.97310654 -4.625 6.3125 C-4.15433105 5.67030518 -3.68366211 5.02811035 -3.19873047 4.36645508 C-2.13229962 2.91110732 -1.06611777 1.45557712 0 0 Z " fill="#FFFDFD" transform="translate(306,87)"/>
</svg>
